<svg width="28" height="28" viewBox="0 0 28 28" fill="none" xmlns="http://www.w3.org/2000/svg">
<path d="M23.8161 9.07293L23.503 9.79326C23.4541 9.91055 23.3715 10.0107 23.2658 10.0812C23.16 10.1517 23.0357 10.1893 22.9086 10.1893C22.7816 10.1893 22.6573 10.1517 22.5515 10.0812C22.4458 10.0107 22.3632 9.91055 22.3143 9.79326L22.0012 9.07293C21.4507 7.79864 20.4426 6.77694 19.1758 6.20943L18.2098 5.778C18.0926 5.72409 17.9934 5.63771 17.9238 5.5291C17.8542 5.42049 17.8172 5.29421 17.8172 5.16521C17.8172 5.03622 17.8542 4.90993 17.9238 4.80132C17.9934 4.69271 18.0926 4.60633 18.2098 4.55242L19.1224 4.14644C20.421 3.56277 21.4464 2.50328 21.9872 1.18623L22.3105 0.408629C22.3578 0.288176 22.4403 0.184764 22.5472 0.111875C22.6541 0.0389857 22.7805 0 22.9099 0C23.0393 0 23.1657 0.0389857 23.2727 0.111875C23.3796 0.184764 23.4621 0.288176 23.5094 0.408629L23.8314 1.18495C24.3716 2.50226 25.3965 3.56221 26.6949 4.14644L27.6087 4.5537C27.7256 4.60776 27.8245 4.69413 27.8938 4.8026C27.9632 4.91107 28 5.03711 28 5.16585C28 5.29458 27.9632 5.42063 27.8938 5.5291C27.8245 5.63757 27.7256 5.72394 27.6087 5.778L26.6415 6.20816C25.3749 6.77624 24.3673 7.79839 23.8174 9.07293M8.27257 7.63736H5.72716V22.9093H8.27257V7.63736ZM2.54541 12.728H0V17.8187H2.54541V12.728ZM13.9997 2.54671H11.4543V28H13.9997V2.54671ZM19.7269 10.1827H17.1815V22.9093H19.7269V10.1827ZM25.4541 12.728H22.9086V17.8187H25.4541V12.728Z" fill="url(#paint0_linear_239_658)"/>
<defs>
<linearGradient id="paint0_linear_239_658" x1="14" y1="0" x2="14" y2="28" gradientUnits="userSpaceOnUse">
<stop stop-color="#007AFF"/>
<stop offset="1" stop-color="#AA43AC"/>
</linearGradient>
</defs>
</svg>
